<svg width="55" height="55" viewBox="0 0 55 55" fill="none" xmlns="http://www.w3.org/2000/svg">
<g clip-path="url(#clip0_600_15204)">
<path d="M9.63334 4.38472e-06H44.7667C46.0321 -0.00121885 47.2853 0.253509 48.4546 0.749609C49.6239 1.24571 50.6864 1.97344 51.5811 2.89116C52.4759 3.80888 53.1854 4.89857 53.6691 6.09786C54.1528 7.29715 54.4012 8.5825 54.4 9.88035V44.5197C54.4012 45.8175 54.1528 47.1029 53.6691 48.3022C53.1854 49.5014 52.4759 50.5911 51.5811 51.5088C50.6864 52.4266 49.6239 53.1543 48.4546 53.6504C47.2853 54.1465 46.0321 54.4012 44.7667 54.4H9.63334C8.36794 54.4012 7.11472 54.1465 5.94541 53.6504C4.7761 53.1543 3.71366 52.4266 2.81888 51.5088C1.92411 50.5911 1.21457 49.5014 0.730869 48.3022C0.247171 47.1029 -0.00118838 45.8175 4.27511e-06 44.5197V9.88035C-0.00118838 8.5825 0.247171 7.29715 0.730869 6.09786C1.21457 4.89857 1.92411 3.80888 2.81888 2.89116C3.71366 1.97344 4.7761 1.24571 5.94541 0.749609C7.11472 0.253509 8.36794 -0.00121885 9.63334 4.38472e-06Z" fill="#330000"/>
<path d="M26.3613 32.64H17.9293L16.2066 38.1033C16.1874 38.2028 16.1325 38.2914 16.0529 38.3517C15.9732 38.4119 15.8744 38.4394 15.776 38.4287H11.5146C11.2653 38.4287 11.1973 38.2892 11.2653 38.0103L18.564 16.4595C18.632 16.227 18.7 15.9713 18.7906 15.6923C18.8819 15.1941 18.9274 14.6882 18.9266 14.1812C18.9199 14.123 18.9348 14.0643 18.9684 14.0168C19.002 13.9694 19.0519 13.9368 19.108 13.9255H24.9786C25.16 13.9255 25.2506 13.9952 25.2733 14.1115L33.5466 38.0568C33.6146 38.3125 33.5466 38.4287 33.32 38.4287H28.5826C28.5025 38.4366 28.4223 38.4153 28.3559 38.3686C28.2896 38.3218 28.2415 38.2526 28.22 38.173L26.3613 32.64ZM19.244 27.9207H25.0013C24.8653 27.4325 24.684 26.8513 24.48 26.2468C24.276 25.6424 24.072 24.945 23.868 24.2475C23.664 23.5501 23.4373 22.8294 23.2106 22.1087C22.984 21.388 22.78 20.7138 22.5986 20.0397C22.4173 19.3655 22.2586 18.7843 22.1 18.2263H22.0546C21.8509 19.2396 21.5937 20.2407 21.284 21.2253C20.944 22.3412 20.604 23.5036 20.2413 24.666C19.924 25.8516 19.584 26.9443 19.244 27.9207ZM38.488 17.9009C38.1159 17.9092 37.746 17.8416 37.3996 17.7019C37.0533 17.5622 36.7375 17.3532 36.4706 17.0872C35.9513 16.5048 35.6747 15.7372 35.7 14.9484C35.6866 14.5641 35.7523 14.1811 35.8929 13.8246C36.0335 13.4681 36.2458 13.146 36.516 12.8793C37.0608 12.3512 37.7837 12.0596 38.5333 12.0656C39.4173 12.0656 40.0973 12.3446 40.596 12.8793C41.0981 13.443 41.3664 14.1852 41.344 14.9484C41.3578 15.3412 41.2947 15.7328 41.1585 16.1002C41.0222 16.4675 40.8155 16.8031 40.5506 17.0872C40.2836 17.3662 39.9612 17.5832 39.6054 17.7236C39.2496 17.864 38.8685 17.9244 38.488 17.9009ZM35.9493 38.08V20.1791C35.9493 19.9467 36.04 19.8537 36.244 19.8537H40.732C40.936 19.8537 41.0266 19.9699 41.0266 20.1791V38.08C41.0266 38.3357 40.936 38.452 40.732 38.452H36.2893C36.2417 38.456 36.1938 38.4489 36.1492 38.4313C36.1046 38.4137 36.0644 38.386 36.0317 38.3502C35.999 38.3144 35.9746 38.2716 35.9604 38.2248C35.9461 38.178 35.9423 38.1285 35.9493 38.08Z" fill="#FF9A00"/>
</g>
<defs>
<clipPath id="clip0_600_15204">
<rect width="54.4" height="54.4" fill="white"/>
</clipPath>
</defs>
</svg>
